<svg xmlns="http://www.w3.org/2000/svg" id="Group_49" data-name="Group 49" viewBox="0 0 43.105 43.002">
    <defs>
        <style>
            .cls-1{fill:#fff}.cls-2{fill:#40bdae}
        </style>
    </defs>
    <g id="Group_6" data-name="Group 6" transform="translate(13.315)">
        <path id="Path_26" d="M90.949 7.461a3.44 3.44 0 0 1 4.826 0l2.413 2.413 2.428-2.413a3.412 3.412 0 1 1 4.826 4.826L98.2 19.51q-3.641-3.619-7.253-7.224a3.413 3.413 0 0 1 0-4.826zM98.188 0a3.4 3.4 0 1 1-3.419 3.4A3.418 3.418 0 0 1 98.188 0z" class="cls-1" data-name="Path 26" transform="translate(-89.95)"/>
    </g>
    <g id="Group_7" data-name="Group 7" transform="translate(0 13.282)">
        <path id="Path_27" d="M7.475 105.175a3.4 3.4 0 0 1 0-4.811l2.413-2.413-2.413-2.412a3.412 3.412 0 0 1 4.825-4.826l7.238 7.224c-2.413 2.413-4.826 4.811-7.238 7.224a3.426 3.426 0 0 1-4.826.015zM0 97.952a3.412 3.412 0 1 1 3.419 3.4A3.408 3.408 0 0 1 0 97.952z" class="cls-2" data-name="Path 27" transform="translate(0 -89.725)"/>
    </g>
    <g id="Group_8" data-name="Group 8" transform="translate(13.33 23.492)">
        <path id="Path_28" d="M105.526 170.749a3.413 3.413 0 0 1-4.826 0l-2.413-2.4-2.413 2.4a3.407 3.407 0 0 1-4.826-4.811l7.238-7.238 7.238 7.238a3.422 3.422 0 0 1 0 4.811zm-7.253 7.461a3.4 3.4 0 1 1 3.419-3.4 3.408 3.408 0 0 1-3.419 3.4z" class="cls-1" data-name="Path 28" transform="translate(-90.05 -158.7)"/>
    </g>
    <g id="Group_9" data-name="Group 9" transform="translate(23.551 13.283)">
        <path id="Path_29" d="M171.179 90.724a3.413 3.413 0 0 1 0 4.826l-2.413 2.413 2.413 2.413a3.4 3.4 0 0 1 0 4.811 3.44 3.44 0 0 1-4.826 0l-7.253-7.225c2.428-2.413 4.826-4.826 7.253-7.224a3.426 3.426 0 0 1 4.826-.015zm7.475 7.238a3.419 3.419 0 1 1-3.419-3.4 3.418 3.418 0 0 1 3.419 3.4z" class="cls-2" data-name="Path 29" transform="translate(-159.1 -89.737)"/>
    </g>
</svg>
