<svg xmlns="http://www.w3.org/2000/svg" viewBox="0 0 170.289 45.296">
    <defs>
        <style>
            .cls-1{fill:#fff}.cls-2{fill:#40bdae}
        </style>
    </defs>
    <g id="Group_16" data-name="Group 16" transform="translate(-120.102 -26)">
        <g id="Group_5" data-name="Group 5" transform="translate(173.021 26.118)">
            <g id="Group_2" data-name="Group 2">
                <path id="Path_23" d="M390.258 31.945a16.742 16.742 0 0 1-5.566 10.421 17.586 17.586 0 0 1-22.826-1.258 12.841 12.841 0 0 1-3.627-6.676 60.289 60.289 0 0 1-.74-11.043 61.661 61.661 0 0 1 .74-11.043 12.841 12.841 0 0 1 3.627-6.676 17.56 17.56 0 0 1 22.826-1.243 16.742 16.742 0 0 1 5.566 10.421h-8.822q-1.554-6.306-7.5-6.306a6.841 6.841 0 0 0-5.566 2.309q-2.2 2.309-2.191 12.538c0 6.824.725 11.013 2.191 12.538a6.861 6.861 0 0 0 5.566 2.309q5.928 0 7.5-6.306h8.822z" class="cls-1" data-name="Path 23" transform="translate(-357.5 -.8)"/>
            </g>
            <g id="Group_3" data-name="Group 3" transform="translate(36.755)">
                <path id="Path_24" d="M638.573 31.945a16.742 16.742 0 0 1-5.566 10.421 17.586 17.586 0 0 1-22.826-1.258 12.738 12.738 0 0 1-3.627-6.676 60.028 60.028 0 0 1-.755-11.043 60.028 60.028 0 0 1 .755-11.043 12.738 12.738 0 0 1 3.627-6.676 17.56 17.56 0 0 1 22.826-1.243 16.742 16.742 0 0 1 5.566 10.421h-8.822q-1.554-6.306-7.5-6.306a6.841 6.841 0 0 0-5.566 2.309q-2.2 2.309-2.191 12.538c0 6.824.725 11.013 2.191 12.538a6.861 6.861 0 0 0 5.566 2.309c3.967 0 6.454-2.1 7.5-6.306h8.822z" class="cls-1" data-name="Path 24" transform="translate(-605.8 -.8)"/>
            </g>
            <g id="Group_4" data-name="Group 4" transform="translate(77.033 .385)">
                <path id="Path_25" d="M909.533 47.837v-25.9l-8.5 16.845h-5.873l-8.571-16.845v25.9H877.9V3.4h8.571l11.635 24.025L909.666 3.4h8.571v44.437z" class="cls-1" data-name="Path 25" transform="translate(-877.9 -3.4)"/>
            </g>
        </g>
        <g id="Group_10" data-name="Group 10" transform="translate(120.102 26)">
            <g id="Group_6" data-name="Group 6" transform="translate(13.315)">
                <path id="Path_26" d="M90.949 7.461a3.44 3.44 0 0 1 4.826 0l2.413 2.413 2.428-2.413a3.412 3.412 0 1 1 4.826 4.826L98.2 19.51q-3.641-3.619-7.253-7.224a3.413 3.413 0 0 1 0-4.826zM98.188 0a3.4 3.4 0 1 1-3.419 3.4A3.418 3.418 0 0 1 98.188 0z" class="cls-1" data-name="Path 26" transform="translate(-89.95)"/>
            </g>
            <g id="Group_7" data-name="Group 7" transform="translate(0 13.282)">
                <path id="Path_27" d="M7.475 105.175a3.4 3.4 0 0 1 0-4.811l2.413-2.413-2.413-2.412a3.412 3.412 0 0 1 4.825-4.826l7.238 7.224c-2.413 2.413-4.826 4.811-7.238 7.224a3.426 3.426 0 0 1-4.826.015zM0 97.952a3.412 3.412 0 1 1 3.419 3.4A3.408 3.408 0 0 1 0 97.952z" class="cls-2" data-name="Path 27" transform="translate(0 -89.725)"/>
            </g>
            <g id="Group_8" data-name="Group 8" transform="translate(13.33 23.492)">
                <path id="Path_28" d="M105.526 170.749a3.413 3.413 0 0 1-4.826 0l-2.413-2.4-2.413 2.4a3.407 3.407 0 0 1-4.826-4.811l7.238-7.238 7.238 7.238a3.422 3.422 0 0 1 0 4.811zm-7.253 7.461a3.4 3.4 0 1 1 3.419-3.4 3.408 3.408 0 0 1-3.419 3.4z" class="cls-1" data-name="Path 28" transform="translate(-90.05 -158.7)"/>
            </g>
            <g id="Group_9" data-name="Group 9" transform="translate(23.551 13.283)">
                <path id="Path_29" d="M171.179 90.724a3.413 3.413 0 0 1 0 4.826l-2.413 2.413 2.413 2.413a3.4 3.4 0 0 1 0 4.811 3.44 3.44 0 0 1-4.826 0l-7.253-7.225c2.428-2.413 4.826-4.826 7.253-7.224a3.426 3.426 0 0 1 4.826-.015zm7.475 7.238a3.419 3.419 0 1 1-3.419-3.4 3.418 3.418 0 0 1 3.419 3.4z" class="cls-2" data-name="Path 29" transform="translate(-159.1 -89.737)"/>
            </g>
        </g>
    </g>
</svg>
