<svg xmlns="http://www.w3.org/2000/svg" id="Group_124" data-name="Group 124" viewBox="0 0 198.446 197.969">
    <defs>
        <style>
            .cls-1{fill:#272661}
        </style>
    </defs>
    <g id="Group_6" data-name="Group 6" transform="translate(61.299)">
        <path id="Path_26" d="M94.55 34.346a15.837 15.837 0 0 1 22.216 0l11.108 11.108 11.176-11.108a15.709 15.709 0 1 1 22.216 22.216l-33.324 33.256Q111.178 73.156 94.55 56.562a15.712 15.712 0 0 1 0-22.216zM127.874 0a15.674 15.674 0 1 1-15.742 15.674A15.735 15.735 0 0 1 127.874 0z" class="cls-1" data-name="Path 26" transform="translate(-89.95)"/>
    </g>
    <g id="Group_7" data-name="Group 7" transform="translate(0 61.145)">
        <path id="Path_27" d="M34.415 160.854a15.63 15.63 0 0 1 0-22.148L45.523 127.6l-11.108-11.11a15.709 15.709 0 1 1 22.216-22.216l33.324 33.256c-11.108 11.108-22.216 22.148-33.324 33.256a15.774 15.774 0 0 1-22.216.068zM0 127.6a15.708 15.708 0 1 1 15.742 15.674A15.691 15.691 0 0 1 0 127.6z" class="cls-1" data-name="Path 27" transform="translate(0 -89.725)"/>
    </g>
    <g id="Group_8" data-name="Group 8" transform="translate(61.367 108.15)">
        <path id="Path_28" d="M161.3 214.172a15.712 15.712 0 0 1-22.216 0l-11.108-11.04-11.108 11.04a15.685 15.685 0 0 1-22.218-22.148l33.324-33.324 33.326 33.324a15.754 15.754 0 0 1 0 22.148zm-33.392 34.346a15.674 15.674 0 1 1 15.742-15.674 15.691 15.691 0 0 1-15.742 15.674z" class="cls-1" data-name="Path 28" transform="translate(-90.05 -158.7)"/>
    </g>
    <g id="Group_9" data-name="Group 9" transform="translate(108.423 61.154)">
        <path id="Path_29" d="M214.708 94.278a15.712 15.712 0 0 1 0 22.216L203.6 127.6l11.108 11.108a15.63 15.63 0 0 1 0 22.148 15.837 15.837 0 0 1-22.216 0L159.1 127.6c11.176-11.108 22.216-22.216 33.392-33.256a15.774 15.774 0 0 1 22.216-.068zm34.415 33.322a15.742 15.742 0 1 1-15.742-15.674 15.734 15.734 0 0 1 15.742 15.674z" class="cls-1" data-name="Path 29" transform="translate(-159.1 -89.737)"/>
    </g>
</svg>
