<svg id="Layer_1" data-name="Layer 1" xmlns="http://www.w3.org/2000/svg" viewBox="0 0 100 100"><defs><style>.cls-1{fill:#fff;}.cls-2{fill:#05d1b0;}</style></defs><title>Mesa de trabajo 1</title><path class="cls-1" d="M13.09,43.36a2,2,0,0,0,.47-.06A2,2,0,0,0,15,40.89a21.27,21.27,0,0,1-.59-5c0-9.86,7.64-17.89,17-17.89,9.72,0,16.84,6.77,16.94,16.1a2,2,0,0,0,4,0c.09-9.32,7.22-16.1,16.93-16.1,9.39,0,17,8,17,17.89a21.11,21.11,0,0,1-.57,4.87,2,2,0,1,0,3.9.92,25.72,25.72,0,0,0,.67-5.79c0-12.07-9.43-21.89-21-21.89-8.66,0-15.66,4.4-18.93,11.21-3.27-6.81-10.27-11.21-18.94-11.21-11.59,0-21,9.82-21,21.89a25,25,0,0,0,.71,5.89A2,2,0,0,0,13.09,43.36Z"/><path class="cls-1" d="M76.31,54.34,50.41,80.12,24.68,54.51a2,2,0,1,0-2.82,2.84L49,84.36a2,2,0,0,0,2.82,0L79.13,57.18a2,2,0,1,0-2.82-2.84Z"/><path class="cls-2" d="M95.5,46.51h0a2.71,2.71,0,0,0-1.71-.62,2.66,2.66,0,0,0-1.69.62H63a2.7,2.7,0,0,0-4.42,2.1s0,.1,0,.16L50.75,59.13,38.56,34.83a3.28,3.28,0,0,0,.1-.7,2.72,2.72,0,0,0-5.43,0,1.2,1.2,0,0,0,0,.2L24.1,46.5H6.91a2.66,2.66,0,0,0-1.7-.62A2.72,2.72,0,1,0,7.14,50.5h18a2,2,0,0,0,1.6-.8l8.91-11.84L47.83,62.24a2.76,2.76,0,0,0-.13.82,2.71,2.71,0,1,0,5.42,0,2.33,2.33,0,0,0,0-.38l8.6-11.42a2.73,2.73,0,0,0,1.51-.76H91.87a2.71,2.71,0,0,0,4.64-1.9C96.5,47.75,96.5,47,95.5,46.51Z"/></svg>