<svg xmlns="http://www.w3.org/2000/svg" id="if_Facebook_194929" viewBox="0 0 39 39">
    <defs>
        <style>
            .cls-1{fill:#fff;fill-rule:evenodd}
        </style>
    </defs>
    <g id="Facebook">
        <path id="Oval-1" d="M19.5 39A19.5 19.5 0 1 0 0 19.5 19.5 19.5 0 0 0 19.5 39zm0-2.34A17.16 17.16 0 1 0 2.34 19.5 17.16 17.16 0 0 0 19.5 36.66zm1.415-8.58V19.5h2.538l.336-2.957h-2.874v-1.48c0-.771.079-1.184 1.266-1.184h1.587V10.92h-2.535c-3.049 0-4.123 1.434-4.123 3.847v1.775h-1.9V19.5h1.9v8.58zm0 0" class="cls-1"/>
    </g>
</svg>
