<svg xmlns="http://www.w3.org/2000/svg" viewBox="0 0 36.965 36.965">
    <defs>
        <style>
            .cls-1{fill:#fff}
        </style>
    </defs>
    <g id="if_globe_309064" transform="translate(-2 -2)">
        <path id="Path_30" d="M38.156 20.228A17.928 17.928 0 1 1 20.228 2.3a17.945 17.945 0 0 1 17.928 17.928zm-18.113 8.5c0-.37-.185-.554-.554-.739-1.109-.37-2.218-.37-3.142-1.294-.185-.37-.185-.739-.37-1.109a5.535 5.535 0 0 0-1.848-.739h-3.7c-.554-.185-.924-.924-1.294-1.479 0-.185 0-.554-.37-.554-.37-.185-.739.185-1.109 0a.679.679 0 0 1-.185-.554 2.282 2.282 0 0 1 .739-1.479c.554-.37 1.109.185 1.663.185.185 0 .185 0 .37.185.554.185.739.924.739 1.479V23c0 .185.185.185.37.185.185-.924.185-1.848.37-2.772a3.272 3.272 0 0 1 2.033-2.588c.37-.185.554.185.924 0 1.109-.37 3.881-1.479 3.327-2.957-.37-1.294-1.479-2.588-2.957-2.4-.37.185-.554.37-.924.554-.554.37-1.663 1.479-2.218 1.479-.924-.185-.924-1.479-.739-2.033.185-.739 1.848-3.142 2.957-2.772l.739.739a3.6 3.6 0 0 0 1.479.185.679.679 0 0 0 .554-.185c.185-.185.185-.185.185-.37 0-.554-.554-1.109-.924-1.479a4.024 4.024 0 0 0-1.479-.924A7.727 7.727 0 0 0 8.4 9.138 14.582 14.582 0 0 0 5.072 14.5a23.863 23.863 0 0 0-.924 3.881 3.18 3.18 0 0 0 .185 2.588 8.452 8.452 0 0 0 2.772 2.957c.739.554 2.218.554 2.957 1.479.554.739.37 1.663.37 2.588 0 1.109.739 2.033 1.109 2.957.185.554.37 1.294.554 1.848 0 .185.185 1.294.185 1.479a18.149 18.149 0 0 0 3.327 1.479c.185 0 .924-1.109.924-1.294A13.441 13.441 0 0 1 18.01 32.8a3.867 3.867 0 0 0 1.109-.739 4.567 4.567 0 0 0 .739-1.663 2.471 2.471 0 0 0 .185-1.668zm.37-17c.185 0 .37-.185.739-.37.554-.37 1.109-.924 1.663-1.294a10.565 10.565 0 0 0 1.479-1.294A3.324 3.324 0 0 0 25.4 7.105c.185-.37.739-1.109.554-1.663-.185-.37-1.109-.554-1.479-.739a16.781 16.781 0 0 0-4.251-.554c-.554 0-1.294.185-1.479.739-.185.924.554.739 1.294.924 0 0 .185 1.479.185 1.663.185.924-.37 1.479-.37 2.4 0 .554 0 1.479.37 1.848zm15.525 12.936c.185-.37.185-.924.37-1.294a13.989 13.989 0 0 0 .185-2.772 17.089 17.089 0 0 0-.739-5.36 6.565 6.565 0 0 1-.739-1.663 7.752 7.752 0 0 0-1.663-2.588c-.739-.924-1.663-3.512-3.327-2.772-.554.185-.924.924-1.294 1.294l-1.109 1.663c-.185.185-.37.554-.185.739 0 .185.185.185.37.185.37.185.554.185.924.37.185 0 .37.185.185.37a.181.181 0 0 1-.185.185c-.924.924-1.848 1.663-2.772 2.588a1.4 1.4 0 0 0-.37.739c0 .185.185.185.185.37s-.185.185-.37.37a4.04 4.04 0 0 0-.924.554c-.185.37 0 .924-.185 1.294a15.576 15.576 0 0 1-1.109 2.588c-.37.554-.554 1.109-.924 1.663 0 .739-.185 1.294.185 1.848.924 1.294 2.588.554 3.881 1.109.37.185.739.185.924.554.554.554.554 1.479.739 2.033a10.42 10.42 0 0 0 .739 2.218c.185.924.554 1.848.739 2.588a16.919 16.919 0 0 0 4.251-4.621 13.385 13.385 0 0 0 2.218-4.252z" class="cls-1" data-name="Path 30" transform="translate(.254 .254)"/>
        <path id="Path_31" d="M20.482 2a18.482 18.482 0 1 0 18.483 18.482A18.537 18.537 0 0 0 20.482 2zm0 34.008a15.525 15.525 0 1 1 15.526-15.526 15.619 15.619 0 0 1-15.526 15.526z" class="cls-1" data-name="Path 31"/>
    </g>
</svg>
