<svg xmlns="http://www.w3.org/2000/svg" id="monitor" viewBox="0 0 656.98 656.98">
    <defs>
        <style>
            .cls-1{fill:#40bdae}.cls-2{fill:#d3a06c}.cls-3{fill:#b27946}.cls-4{fill:#f9e0a6}.cls-5{fill:#ececec}.cls-6{fill:#eabd8c}.cls-7{fill:#afb8c9}.cls-8{fill:#798699}.cls-9{fill:#b6c1ce}.cls-10{fill:#d13b45}.cls-11{fill:#02005c}
        </style>
    </defs>
    <path id="Path_74" d="M643.787 469.472V130.386A42.388 42.388 0 0 0 601.4 88H50.386A42.388 42.388 0 0 0 8 130.386v339.086z" class="cls-1" data-name="Path 74" transform="translate(2.596 28.561)"/>
    <path id="Path_87" d="M0 0h635.787v31.789H0z" class="cls-1" data-name="Path 87" transform="translate(10.596 466.244)"/>
    <path id="Path_75" d="M112 166.947V118.14A110.146 110.146 0 0 1 222.14 8a71.39 71.39 0 0 1 59.4 31.789 55.958 55.958 0 0 1 42.386 54.286v72.872z" class="cls-2" data-name="Path 75" transform="translate(36.35 2.596)"/>
    <path id="Path_76" d="M257.448 39.789A71.4 71.4 0 0 0 198.044 8a111.413 111.413 0 0 0-11.8.646 71.4 71.4 0 0 1 50.015 31.143 55.958 55.958 0 0 1 42.386 54.286v72.872h21.193V94.075a55.959 55.959 0 0 0-42.39-54.286z" class="cls-3" data-name="Path 76" transform="translate(60.445 2.596)"/>
    <g id="Group_146" data-name="Group 146" transform="translate(148.35 137.754)">
        <path id="Path_77" d="M240 104h10.6a31.787 31.787 0 0 1 31.789 31.789 31.787 31.787 0 0 1-31.789 31.79H240z" class="cls-4" data-name="Path 77" transform="translate(-70.457 -104)"/>
        <path id="Path_78" d="M154.386 104h-10.6A31.787 31.787 0 0 0 112 135.789a31.787 31.787 0 0 0 31.789 31.789h10.6z" class="cls-4" data-name="Path 78" transform="translate(-112 -104)"/>
    </g>
    <path id="Path_79" d="M199.157 208L131.2 221.6a63.577 63.577 0 0 0-48.659 44.876L72 303.368h317.894l-10.543-36.9a63.56 63.56 0 0 0-48.66-44.868L262.736 208z" class="cls-5" data-name="Path 79" transform="translate(23.368 67.508)"/>
    <g id="Group_147" data-name="Group 147" transform="translate(180.14 105.965)">
        <path id="Path_80" d="M168 192v31.789l31.789 21.193 31.789-21.193V192z" class="cls-4" data-name="Path 80" transform="translate(-125.614 -43.65)"/>
        <path id="Path_81" d="M136 111.789v52.982a74.175 74.175 0 0 0 74.175 74.175 74.175 74.175 0 0 0 74.175-74.175v-52.982a127.155 127.155 0 0 1-76.294-25.431L199.579 80l-9.314 9.314A76.739 76.739 0 0 1 136 111.789z" class="cls-4" data-name="Path 81" transform="translate(-136 -80)"/>
    </g>
    <path id="Path_82" d="M247.579 157.426A74.115 74.115 0 0 1 184 230.754a73.62 73.62 0 0 0 84.772-73.327v-52.983a126.219 126.219 0 0 1-21.193-1.812z" class="cls-6" data-name="Path 82" transform="translate(59.718 33.31)"/>
    <path id="Path_83" d="M8 376v42.386a42.388 42.388 0 0 0 42.386 42.386H601.4a42.388 42.388 0 0 0 42.386-42.386V376z" class="cls-7" data-name="Path 83" transform="translate(2.596 122.033)"/>
    <path id="Rectangle_134" d="M0 0h275.508v63.579H0z" class="cls-8" data-name="Rectangle 134" transform="translate(190.736 582.805)"/>
    <path id="Path_84" d="M278.762 220.331l-42.174-8.431A59.718 59.718 0 0 0 232 234.89v1.515a59.949 59.949 0 0 0 15.757 40.5l23.1 25.2h67.107l-10.543-36.9a63.543 63.543 0 0 0-48.659-44.874z" class="cls-9" data-name="Path 84" transform="translate(75.297 68.772)"/>
    <path id="Path_85" d="M372.561 395.929l-100.8-109.97a59.949 59.949 0 0 1-15.761-40.5v-1.515A59.948 59.948 0 0 1 315.944 184a59.946 59.946 0 0 1 42.386 17.558l14.231 14.231 14.231-14.231A59.946 59.946 0 0 1 429.178 184a59.948 59.948 0 0 1 59.944 59.944v1.515a59.949 59.949 0 0 1-15.757 40.5z" class="cls-10" data-name="Path 85" transform="translate(83.086 59.718)"/>
    <path id="Path_86" d="M604 105.965H370.876v-9.294A66.45 66.45 0 0 0 324.4 33.22 81.8 81.8 0 0 0 258.5 0c-61.565 0-112.418 46.349-119.74 105.965H52.982A53.042 53.042 0 0 0 0 158.947v381.472A53.042 53.042 0 0 0 52.982 593.4H180.14v42.386h-42.386v21.194h381.472v-21.193H476.84V593.4H604a53.042 53.042 0 0 0 52.982-52.982V158.947A53.042 53.042 0 0 0 604 105.965zM347.034 352.841l6.824 7.439H109.419l6.686-23.4a52.79 52.79 0 0 1 40.553-37.395l76.464-15.285v-11.479a81.975 81.975 0 0 0 42.386 0V284.2l53.586 10.713a70.169 70.169 0 0 0-.6 8.753v1.515a70.362 70.362 0 0 0 18.54 47.66zm2.649-47.663v-1.515a49.348 49.348 0 0 1 84.242-34.894l21.722 21.731 21.723-21.723a49.34 49.34 0 0 1 84.242 34.883v1.515a49 49 0 0 1-6.061 23.312h-25.728v21.193h8.583l-82.758 90.292-92.994-101.45a49.1 49.1 0 0 1-6.909-10.024h29.775l26.894 53.788 33.114-55.176 15.047 22.57h48.055v-21.19h-36.717l-27.339-41.008-30.465 50.789-15.492-30.971h-48.743c-.022-.713-.191-1.412-.191-2.122zm-95.368-50.863a63.643 63.643 0 0 1-63.579-63.579v-43.1a86.611 86.611 0 0 0 51.16-24.87l2.819-2.819 1.123.848a138.746 138.746 0 0 0 72.056 27.116v42.82a63.643 63.643 0 0 1-63.579 63.584zm-84.772-66.525a21.009 21.009 0 0 1 0-36.494zm169.543-36.49a21.009 21.009 0 0 1 0 36.494zM258.5 21.193a60.657 60.657 0 0 1 50.577 27.074l2.268 3.412 3.974 1a45.275 45.275 0 0 1 34.364 44v36.378a41.95 41.95 0 0 0-21.193-5.892 117.289 117.289 0 0 1-69.937-23.312l-15.831-11.876-15.81 15.81a65.718 65.718 0 0 1-46.773 19.37 41.95 41.95 0 0 0-21.193 5.892v-12.313A99.656 99.656 0 0 1 258.5 21.193zm197.147 614.594H201.333V593.4h254.314zm180.14-95.368A31.828 31.828 0 0 1 604 572.208H52.982a31.828 31.828 0 0 1-31.789-31.789V508.63h614.594zM21.193 487.437v-328.49a31.828 31.828 0 0 1 31.789-31.789h84.772v42.386a42.427 42.427 0 0 0 34.375 41.58 84.963 84.963 0 0 0 39.8 52.919v2.787L152.5 278.718a73.871 73.871 0 0 0-56.776 52.357l-14.411 50.4h291.968l82.366 89.847 108.6-118.49a70.276 70.276 0 0 0 18.553-47.654v-1.515a70.537 70.537 0 0 0-120.418-49.877l-6.739 6.729-6.739-6.739a70.479 70.479 0 0 0-114.014 20.683l-38.19-7.64v-2.787a84.963 84.963 0 0 0 39.8-52.919 42.407 42.407 0 0 0 34.375-41.57v-42.386H604a31.828 31.828 0 0 1 31.789 31.789v328.49z" class="cls-11" data-name="Path 86"/>
    <path id="Rectangle_135" d="M0 0h21.193v21.193H0z" data-name="Rectangle 135" transform="translate(593.401 529.823)"/>
    <path id="Rectangle_136" d="M0 0h21.193v21.193H0z" data-name="Rectangle 136" transform="translate(551.015 529.823)"/>
    <path id="Rectangle_137" d="M0 0h21.193v21.193H0z" data-name="Rectangle 137" transform="translate(508.63 529.823)"/>
</svg>
