<svg xmlns="http://www.w3.org/2000/svg" viewBox="0 0 658.385 656.802">
  <defs>
    <style>
      .cls-1 {
        opacity: 0.039;
      }

      .cls-2 {
        fill: #272661;
      }
    </style>
  </defs>
  <g id="Group_115" data-name="Group 115" class="cls-1" transform="translate(0)">
    <g id="Group_6" data-name="Group 6" transform="translate(203.371)">
      <path id="Path_26" data-name="Path 26" class="cls-2" d="M105.211,113.951c20.348-20.122,53.584-20.122,73.706,0L215.771,150.8l37.079-36.853c20.122-20.122,53.358-20.122,73.707,0,20.122,20.122,20.122,53.358,0,73.707L216,297.992q-55.619-55.28-110.786-110.334c-20.348-20.348-20.348-53.584,0-73.707ZM215.771,0a52,52,0,1,1-52.228,52A52.2,52.2,0,0,1,215.771,0Z" transform="translate(-89.95)"/>
    </g>
    <g id="Group_7" data-name="Group 7" transform="translate(0 202.863)">
      <path id="Path_27" data-name="Path 27" class="cls-2" d="M114.177,325.71a51.855,51.855,0,0,1,0-73.48l36.853-36.853-36.853-36.853c-20.348-20.122-20.348-53.358,0-73.706,20.348-20.122,53.584-20.122,73.707,0L298.444,215.15C261.59,252,224.737,288.631,187.884,325.484c-20.122,20.348-53.358,20.348-73.707.226ZM0,215.377a52.115,52.115,0,1,1,52.228,52A52.058,52.058,0,0,1,0,215.377Z" transform="translate(0 -89.725)"/>
    </g>
    <g id="Group_8" data-name="Group 8" transform="translate(203.597 358.811)">
      <path id="Path_28" data-name="Path 28" class="cls-2" d="M326.431,342.74c-20.349,20.349-53.584,20.349-73.707,0l-36.853-36.627L179.018,342.74c-20.348,20.349-53.584,20.349-73.706,0a51.854,51.854,0,0,1,0-73.48L215.871,158.7l110.56,110.56a52.267,52.267,0,0,1,0,73.48ZM215.645,456.692a52,52,0,1,1,52.228-52,52.058,52.058,0,0,1-52.228,52Z" transform="translate(-90.05 -158.7)"/>
    </g>
    <g id="Group_9" data-name="Group 9" transform="translate(359.715 202.891)">
      <path id="Path_29" data-name="Path 29" class="cls-2" d="M343.593,104.8a52.128,52.128,0,0,1,0,73.707l-36.854,36.853,36.854,36.853a51.855,51.855,0,0,1,0,73.48,52.542,52.542,0,0,1-73.706,0L159.1,215.361c37.08-36.853,73.707-73.707,110.786-110.334,20.123-20.348,53.358-20.348,73.706-.226ZM457.77,215.361a52.228,52.228,0,1,1-52.227-52,52.2,52.2,0,0,1,52.227,52Z" transform="translate(-159.1 -89.737)"/>
    </g>
  </g>
</svg>
